<?xml version="1.0" standalone="no"?>
<!DOCTYPE svg PUBLIC "-//W3C//DTD SVG 20010904//EN"
 "http://www.w3.org/TR/2001/REC-SVG-20010904/DTD/svg10.dtd">
<svg version="1.0" xmlns="http://www.w3.org/2000/svg"
 width="500.000000pt" height="500.000000pt" viewBox="0 0 500.000000 500.000000"
 preserveAspectRatio="xMidYMid meet">
<metadata>
Created by potrace 1.14, written by Peter Selinger 2001-2017
</metadata>
<g transform="translate(0.000000,500.000000) scale(0.100000,-0.100000)"
fill="#000000" stroke="none">
<path d="M2235 4801 c-11 -4 -35 -7 -52 -6 -18 1 -33 -1 -33 -5 0 -3 -12 -7
-27 -8 -48 -2 -113 -14 -113 -22 0 -4 -10 -6 -22 -5 -13 1 -40 -4 -61 -11 -20
-7 -41 -14 -45 -14 -4 0 -25 -6 -47 -12 -22 -7 -44 -13 -50 -13 -5 -1 -27 -9
-49 -18 -21 -9 -42 -17 -46 -17 -4 0 -21 -7 -36 -15 -16 -8 -37 -15 -46 -15
-10 0 -18 -4 -18 -10 0 -5 -5 -10 -12 -10 -18 0 -188 -83 -188 -92 0 -4 -8 -8
-19 -8 -10 0 -24 -7 -31 -15 -7 -8 -19 -15 -26 -15 -8 0 -14 -5 -14 -11 0 -5
-4 -8 -9 -5 -5 4 -11 3 -13 -1 -4 -10 -85 -63 -95 -63 -5 0 -14 -9 -21 -21 -7
-12 -16 -19 -19 -16 -2 3 -14 -3 -26 -14 -47 -41 -57 -49 -57 -44 0 6 -10 -3
-87 -75 -24 -22 -43 -37 -43 -34 0 7 -157 -155 -205 -212 -22 -26 -50 -58 -61
-70 -12 -13 -19 -25 -16 -28 3 -3 0 -6 -6 -6 -7 0 -12 -4 -12 -10 0 -5 -9 -20
-20 -32 -45 -52 -50 -59 -45 -68 3 -5 -4 -14 -15 -20 -11 -6 -18 -15 -15 -21
4 -5 3 -9 -2 -9 -8 0 -47 -62 -43 -69 1 -2 -2 -7 -7 -10 -11 -8 -27 -37 -87
-156 -48 -96 -56 -115 -58 -142 -1 -7 -5 -13 -9 -13 -6 0 -10 -12 -19 -48 -1
-4 -6 -12 -12 -19 -5 -7 -7 -17 -3 -23 3 -5 2 -10 -4 -10 -5 0 -12 -18 -16
-40 -4 -22 -11 -42 -15 -45 -5 -3 -7 -14 -5 -25 2 -11 0 -20 -6 -20 -5 0 -9
-11 -9 -24 0 -14 -4 -27 -9 -30 -5 -4 -8 -17 -7 -31 2 -13 0 -23 -4 -20 -7 5
-31 -119 -33 -177 -1 -21 -5 -38 -8 -38 -12 0 -19 -120 -22 -345 -2 -121 0
-225 5 -231 4 -6 9 -36 10 -67 2 -31 5 -57 8 -57 3 0 5 -15 5 -33 0 -17 2 -36
4 -42 3 -5 7 -21 9 -35 1 -14 5 -32 9 -40 3 -8 5 -23 4 -32 -1 -10 2 -18 7
-18 5 0 8 -10 8 -22 -1 -13 4 -35 11 -50 7 -15 13 -30 13 -33 0 -3 1 -8 1 -12
1 -5 0 -16 -1 -27 -1 -10 3 -15 9 -12 5 4 10 -2 9 -11 0 -19 13 -59 42 -128 9
-22 28 -68 41 -102 13 -35 28 -63 32 -63 5 0 6 -4 3 -9 -3 -5 1 -14 9 -21 8
-7 15 -21 15 -31 0 -11 3 -19 8 -19 4 0 18 -25 32 -55 14 -30 28 -55 33 -55 4
0 7 -6 7 -14 0 -7 11 -25 24 -39 13 -14 22 -28 20 -30 -2 -2 7 -16 21 -31 13
-14 25 -30 25 -34 0 -4 7 -15 15 -25 8 -9 15 -19 15 -22 0 -5 25 -37 47 -60 7
-8 13 -18 13 -24 0 -6 7 -11 15 -11 8 0 15 -5 15 -12 0 -13 -3 -10 129 -144
86 -87 133 -131 221 -204 10 -8 28 -22 41 -30 12 -8 37 -28 56 -44 18 -15 33
-24 33 -20 0 5 6 2 13 -7 7 -9 22 -19 35 -23 12 -4 19 -12 16 -18 -4 -6 -3 -9
2 -5 5 3 32 -10 59 -29 28 -18 53 -34 57 -34 4 0 29 -13 55 -28 26 -16 50 -29
53 -30 3 0 23 -9 45 -18 22 -10 43 -17 48 -16 4 1 7 -3 7 -8 0 -6 9 -10 20
-10 11 0 20 -4 20 -8 0 -5 6 -9 13 -10 17 -1 201 -65 207 -72 3 -3 12 -5 20
-5 8 1 20 -2 25 -6 6 -4 15 -8 20 -8 46 -6 85 -15 85 -20 0 -4 16 -6 35 -6 19
1 35 -2 35 -5 0 -4 10 -6 23 -6 12 1 27 -1 32 -5 6 -4 13 -8 18 -8 4 -1 8 -1
10 -2 1 -1 22 -2 47 -4 25 -1 45 -3 45 -5 0 -4 55 -8 183 -13 94 -4 112 -3
112 10 0 12 2 12 15 -1 16 -15 33 -15 220 -2 84 7 169 18 185 25 8 4 25 6 38
5 12 0 22 2 22 7 0 4 10 6 22 4 12 -3 26 -1 32 4 12 9 136 37 149 33 4 -1 7 3
7 8 0 6 9 10 20 10 11 0 20 5 20 11 0 5 4 7 10 4 12 -7 110 26 110 38 0 4 4 6
9 2 6 -3 26 4 45 15 20 11 37 19 39 18 7 -4 77 27 77 35 0 4 5 5 10 2 6 -3 10
-1 10 5 0 6 5 8 10 5 6 -3 10 -1 10 5 0 6 4 9 8 6 5 -3 18 3 28 13 11 9 25 16
32 13 6 -2 12 1 12 8 0 6 5 8 10 5 6 -3 13 1 16 9 3 9 10 14 14 11 4 -2 18 4
30 15 13 11 29 20 37 20 7 0 13 5 13 11 0 5 4 8 9 5 5 -4 11 -3 13 2 1 4 32
28 68 52 36 25 68 50 72 55 4 6 8 6 8 2 0 -4 11 3 24 17 13 15 26 26 29 26 7
0 43 32 132 116 35 34 66 59 69 56 3 -3 6 0 6 7 0 6 24 34 52 61 29 28 50 50
46 50 -5 0 12 20 36 45 25 25 42 45 39 45 -4 0 5 12 18 28 14 15 39 48 56 74
17 26 33 45 37 41 3 -3 6 3 6 15 0 12 5 22 10 22 6 0 10 6 10 14 0 8 7 16 15
20 8 3 14 9 13 13 -4 12 44 93 54 93 5 0 6 5 3 10 -3 6 1 17 9 26 9 8 16 22
16 30 0 8 5 14 11 14 5 0 7 5 4 10 -3 6 1 17 9 26 9 8 16 24 16 35 0 10 4 19
10 19 5 0 9 3 8 8 -1 4 3 18 9 32 6 14 11 28 12 32 1 4 13 32 26 62 13 30 21
57 18 60 -4 3 -1 6 5 6 7 0 11 3 10 8 -3 14 14 82 21 82 4 0 8 6 9 13 0 6 3
23 6 37 4 14 9 38 12 55 3 16 8 32 12 35 4 3 7 20 7 38 -1 17 2 32 7 32 5 0 6
11 4 24 -2 13 -2 27 2 30 13 14 15 56 18 401 2 349 -1 449 -15 441 -3 -2 -7
12 -7 32 -2 44 -12 89 -24 113 -7 12 -6 19 1 21 8 3 7 8 -2 18 -8 8 -15 24
-17 35 -1 11 -4 25 -6 30 -2 6 -7 25 -11 43 -4 18 -11 35 -16 38 -4 2 -6 11
-2 19 3 8 0 15 -7 15 -6 0 -9 4 -6 8 2 4 -2 23 -11 42 -31 71 -47 113 -45 123
1 4 -3 7 -9 7 -5 0 -7 5 -4 10 3 6 2 10 -4 10 -5 0 -12 14 -16 30 -4 17 -11
30 -17 30 -6 0 -8 3 -5 6 7 7 -22 64 -38 76 -5 4 -6 8 -2 8 5 0 -1 14 -13 30
-12 17 -18 30 -15 30 4 0 0 7 -7 15 -26 29 -38 45 -37 47 4 7 -64 108 -72 108
-6 0 -8 4 -5 9 3 4 -3 16 -14 26 -11 10 -20 22 -20 28 0 5 -8 17 -18 26 -10 9
-25 26 -34 39 -43 63 -223 249 -299 309 -19 15 -43 35 -52 43 -47 43 -181 139
-194 140 -6 0 -13 3 -15 8 -5 11 -61 48 -86 56 -12 4 -22 12 -22 17 0 6 -4 7
-10 4 -5 -3 -10 -1 -10 4 0 6 -6 11 -14 11 -8 0 -22 7 -30 16 -9 8 -16 13 -16
9 0 -3 -20 5 -44 19 -24 13 -47 22 -50 19 -3 -4 -6 -1 -6 5 0 6 -13 13 -30 17
-16 4 -30 11 -30 16 0 6 -4 8 -9 4 -5 -3 -12 -1 -16 5 -3 5 -12 10 -20 10 -8
0 -26 5 -42 12 -15 6 -30 12 -33 13 -3 1 -13 5 -22 8 -40 15 -54 20 -65 24 -7
1 -19 5 -25 7 -7 2 -28 7 -45 11 -18 4 -33 12 -33 17 0 5 -4 7 -9 4 -4 -3 -33
1 -62 8 -98 25 -167 37 -226 39 -24 1 -43 5 -43 8 0 4 -61 8 -135 8 -88 1
-135 -2 -135 -9 0 -5 -5 -10 -11 -10 -5 0 -7 5 -4 10 7 12 -259 13 -290 1z
m285 -1247 c84 -1 130 -8 160 -23 8 -4 49 -7 90 -6 41 1 82 -2 90 -6 8 -4 29
-12 45 -19 17 -6 50 -29 75 -51 25 -22 59 -45 77 -51 18 -7 33 -16 33 -21 0
-4 5 -5 10 -2 6 3 10 1 10 -5 0 -6 5 -8 10 -5 6 3 10 1 10 -4 0 -6 9 -11 20
-11 11 0 20 -5 20 -11 0 -5 5 -7 10 -4 6 4 22 -1 35 -9 14 -9 25 -14 25 -11 0
12 71 -72 83 -97 6 -16 16 -28 20 -28 5 0 6 -4 3 -9 -3 -5 37 -52 89 -105 52
-53 95 -98 95 -101 0 -3 9 -15 20 -27 17 -19 25 -45 21 -70 0 -5 3 -8 7 -8 4
0 9 -15 10 -32 1 -18 5 -51 9 -73 4 -22 7 -56 8 -75 1 -19 7 -61 14 -92 7 -32
13 -92 13 -135 1 -43 6 -81 12 -85 8 -6 8 -8 0 -8 -7 0 -12 -25 -13 -61 -1
-34 -6 -70 -12 -80 -5 -11 -7 -19 -4 -19 3 0 -4 -17 -15 -37 -11 -21 -20 -43
-20 -50 0 -7 -4 -13 -10 -13 -5 0 -12 -16 -16 -35 -3 -19 -10 -35 -16 -35 -5
0 -7 -4 -3 -9 3 -6 -8 -32 -25 -59 -16 -27 -30 -56 -30 -63 0 -26 -42 -94 -78
-126 -20 -18 -32 -33 -27 -33 4 0 -2 -9 -15 -20 -13 -11 -20 -20 -16 -20 4 0
-5 -10 -20 -22 -15 -13 -51 -46 -80 -74 -37 -35 -90 -70 -171 -110 -65 -32
-119 -62 -121 -66 -2 -5 -8 -8 -13 -8 -5 0 -25 -7 -45 -15 -19 -8 -36 -13 -38
-12 -1 1 -9 -3 -17 -9 -19 -15 -72 -27 -139 -30 -60 -4 -83 -6 -150 -19 -54
-10 -82 -11 -95 -3 -6 3 -28 7 -50 9 -22 1 -46 8 -54 13 -12 9 -13 8 -6 -4 7
-12 6 -13 -6 -4 -8 6 -23 11 -34 12 -41 3 -59 9 -62 19 -2 6 -13 9 -23 6 -12
-3 -20 0 -20 8 0 7 -3 9 -7 6 -3 -4 -12 -2 -19 3 -6 6 -16 10 -20 8 -5 -1 -31
8 -59 21 -27 12 -62 25 -77 28 -16 3 -28 10 -28 15 0 6 -7 8 -15 4 -8 -3 -15
-2 -15 3 0 5 -13 11 -29 14 -31 6 -43 15 -112 80 -23 20 -47 37 -55 37 -8 0
-14 5 -14 10 0 6 -12 15 -26 21 -15 5 -24 12 -21 15 2 3 -6 16 -19 29 -13 13
-26 36 -30 52 -4 15 -23 47 -41 70 -19 23 -34 43 -33 45 1 2 -6 20 -14 40 -9
21 -16 41 -16 46 0 5 -7 15 -15 22 -8 7 -13 16 -10 20 3 5 1 11 -5 15 -5 3
-10 15 -10 26 0 10 -5 19 -10 19 -6 0 -10 6 -8 13 1 6 -6 25 -17 41 -11 16
-20 34 -22 40 -8 40 -13 57 -17 64 -3 5 -6 25 -8 45 -1 21 -5 37 -8 37 -10 0
3 210 16 260 4 14 8 36 10 50 6 49 24 140 31 160 3 8 5 25 4 38 -1 12 2 22 8
22 6 0 8 7 5 15 -4 8 -1 15 5 15 6 0 11 9 11 20 0 11 4 20 10 20 5 0 10 3 9 8
-2 15 14 52 22 52 5 0 9 7 9 15 0 8 5 15 11 15 5 0 7 5 4 10 -3 6 1 10 10 10
9 0 14 4 11 8 -3 5 6 21 20 37 13 15 25 33 25 39 4 40 22 76 53 109 14 15 26
32 26 38 0 5 3 8 8 7 9 -4 31 14 88 70 24 23 44 40 44 36 0 -4 10 4 23 18 12
14 31 29 42 33 11 5 22 9 25 10 3 2 15 6 28 10 12 4 22 12 22 18 0 6 3 8 6 4
4 -3 21 5 38 18 39 29 108 55 153 57 18 1 33 4 33 8 0 4 10 7 23 6 12 -1 33 4
46 11 14 6 28 10 33 7 4 -3 8 -1 8 5 0 5 10 8 21 6 12 -3 29 0 38 4 8 5 20 6
26 3 5 -4 48 -7 95 -8z m15 -2385 c1 -43 -1 -79 -5 -79 -3 0 -6 38 -6 84 0 47
3 83 5 80 3 -3 6 -41 6 -85z m-2 -724 c4 -8 3 -16 -1 -19 -4 -3 -9 4 -9 15 -2
23 3 25 10 4z m3 -195 c1 -55 -2 -98 -5 -94 -7 7 -9 194 -1 194 3 0 6 -45 6
-100z"/>
</g>
</svg>
